# AST/ASF file generated using VICON BodyLanguage
# -----------------------------------------------
:version 1.10
:name VICON
:units
  mass 1.0
  length 0.45
  angle deg
:documentation
   .ast/.asf automatically generated from VICON data using
   VICON BodyBuilder and BodyLanguage model FoxedUp or BRILLIANT.MOD
:root
   order TX TY TZ RX RY RZ
   axis XYZ
   position 0 0 0  
   orientation 0 0 0 
:bonedata
  begin
     id 1 
     name lhipjoint
     direction 0.623415 -0.642378 0.445763 
     length 2.49859 
     axis 0 0 0  XYZ
  end
  begin
     id 2 
     name lfemur
     direction 0.34202 -0.939693 0  
     length 6.69689  
     axis 0 0 20  XYZ
    dof rx ry rz
    limits (-160.0 20.0)
           (-70.0 70.0)
           (-60.0 70.0)
  end
  begin
     id 3 
     name ltibia
     direction 0.34202 -0.939693 0   
     length 7.37574   
     axis 0 0 20   XYZ
    dof rx
    limits (-10.0 170.0)
  end
  begin
     id 4 
     name lfoot
     direction 0.084323 -0.231675 0.969132   
     length 2.09111   
     axis -90 7.62852e-016 20   XYZ
    dof rx rz
    limits (-45.0 90.0)
           (-70.0 20.0)
  end
  begin
     id 5 
     name ltoes
     direction 1.5357e-011 -4.21957e-011 1   
     length 1.04989   
     axis -90 7.62852e-016 20   XYZ
    dof rx
    limits (-90.0 20.0)
  end
  begin
     id 6 
     name rhipjoint
     direction -0.605402 -0.653903 0.45376   
     length 2.45455  
     axis 0 0 0  XYZ 
  end
  begin
     id 7 
     name rfemur
     direction -0.34202 -0.939693 0   
     length 6.64523   
     axis 0 0 -20   XYZ
    dof rx ry rz
    limits (-160.0 20.0)
           (-70.0 70.0)
           (-70.0 60.0)
  end
  begin
     id 8 
     name rtibia
     direction -0.34202 -0.939693 0   
     length 7.3339   
     axis 0 0 -20   XYZ
    dof rx
    limits (-10.0 170.0)
 end
 begin
     id 9 
     name rfoot
     direction -0.120854 -0.332043 0.93549   
     length 2.23135  
     axis -90 -7.62852e-016 -20   XYZ
    dof rx rz
    limits (-45.0 90.0)
           (-20.0 70.0)
  end
  begin
     id 10 
     name rtoes
     direction -1.53563e-011 -4.21914e-011 1   
     length 1.10614   
     axis -90 -7.62852e-016 -20   XYZ
    dof rx
    limits (-90.0 20.0)
  end
  begin
     id 11 
     name lowerback
     direction 0.0319682 0.998615 -0.0417941   
     length 2.02718   
     axis 0 0 0   XYZ
    dof rx ry rz
    limits (-20.0 45.0)
           (-30.0 30.0)
           (-30.0 30.0)
  end
  begin
     id 12 
     name upperback
     direction 7.63181e-005 0.995808 0.0914691   
     length 1.97539   
     axis 0 0 0   XYZ
    dof rx ry rz
    limits (-20.0 45.0)
           (-30.0 30.0)
           (-30.0 30.0)
  end
  begin
     id 13 
     name thorax
     direction -0.016423 0.993627 0.111514   
     length 2.00349   
     axis 0 0 0   XYZ
    dof rx ry rz
    limits (-20.0 45.0)
           (-30.0 30.0)
           (-30.0 30.0)
  end
  begin
     id 14 
     name lowerneck
     direction -0.174763 0.981668 -0.0760716   
     length 1.71436   
     axis 0 0 0   XYZ
    dof rx ry rz
    limits (-20.0 45.0)
           (-30.0 30.0)
           (-30.0 30.0)
  end
  begin
     id 15 
     name upperneck
     direction 0.345458 0.934587 -0.0848868   
     length 1.72805   
     axis 0 0 0   XYZ
    dof rx ry rz
    limits (-20.0 45.0)
           (-30.0 30.0)
           (-30.0 30.0)
  end
  begin
     id 16
     name head
     direction 0.13001 0.989848 -0.0574291  
     length 1.767  
     axis 0 0 0   XYZ
    dof rx ry rz
    limits (-20.0 45.0)
           (-30.0 30.0)
           (-30.0 30.0)
  end
  begin
     id 17 
     name lclavicle
     direction 0.952951 0.290122 0.0878234  
     length 3.54654  
     axis 0 0 0   XYZ
    dof ry rz
    limits (-20.0 10.0)
           (0.0 20.0)
  end
  begin
     id 18 
     name lhumerus
     direction 1 -4.48957e-011 -4.56525e-028   
     length 5.19807   
     axis 180 -30 -90   XYZ
    dof rx ry rz
    limits (-60.0 90.0)
           (-90.0 90.0)
           (-90.0 90.0)
  end
  begin
     id 19
     name lradius
     direction 1 -4.48979e-011 -2.0317e-027   
     length 3.0937   
     axis 180 -30 -90   XYZ
    dof rx
    limits (-10.0 170.0)
  end
  begin
     id 20
     name lwrist
     direction 1 -4.48953e-011 -3.05809e-027   
     length 1.54685   
     axis 8.48514e-016 90 90   XYZ
    dof ry
    limits (-180.0 0.0)
 end
  begin
     id 21 
     name lhand
     direction 1 -4.48952e-011 -6.11639e-027   
     length 0.672632   
     axis 3.9013e-015 90 90   XYZ
    dof rx rz
    limits (-90.0 90.0)
           (-45.0 45.0)
  end
  begin
     id 22 
     name lfingers
     direction 1 -4.48925e-011 -1.22426e-026   
     length 0.542293   
     axis 7.80276e-015 90 90   XYZ
    dof rx
    limits (0.0 90.0)
  end
  begin
     id 23
     name lthumb
     direction 0.707107 -6.3486e-011 0.707107   
     length 0.778628   
     axis -90 45 5.37419e-014   XYZ
    dof rx rz
    limits (-45.0 45.0)
           (-45.0 45.0)
  end
  begin
     id 24 
     name rclavicle
     direction -0.960732 0.273675 -0.0457849   
     length 3.52079  
     axis 0 0 0   XYZ 
    dof ry rz
    limits (-10.0 20.0)
           (-20.0 0.0)
  end
  begin
     id 25 
     name rhumerus
     direction -1 -4.48976e-011 -1.63613e-027  
     length 5.45222   
     axis 180 30 90   XYZ
    dof rx ry rz
    limits (-90.0 60.0)
           (-90.0 90.0)
           (-90.0 90.0)
  end
  begin
     id 26 
     name rradius
     direction -1 -4.48957e-011 -7.00033e-028   
     length 3.01284   
     axis 180 30 90   XYZ
    dof rx
    limits (-10.0 170.0)
  end
  begin
     id 27 
     name rwrist
     direction -1 -4.48983e-011 -3.05543e-027   
     length 1.50642   
     axis 8.48514e-016 -90 -90   XYZ
    dof ry
    limits (-180.0 0.0)
  end
  begin
     id 28
     name rhand
     direction -1 -4.48984e-011 -6.11072e-027   
     length 0.622296   
     axis 3.9013e-015 -90 -90   XYZ
    dof rx rz
    limits (-90.0 90.0)
           (-45.0 45.0)
  end
  begin
     id 29
     name rfingers
     direction -1 -4.48865e-011 -1.22637e-026   
     length 0.501711   
     axis 7.80276e-015 -90 -90   XYZ
    dof rx
    limits (0.0 90.0)
  end
  begin
     id 30
     name rthumb
     direction -0.707107 -6.34932e-011 0.707107   
     length 0.72036   
     axis -90 -45 -5.37419e-014   XYZ
    dof rx rz
    limits (-45.0 45.0)
           (-45.0 45.0)
  end
:hierarchy
  begin
    root lhipjoint rhipjoint lowerback
    lhipjoint lfemur
    lfemur ltibia
    ltibia lfoot
    lfoot ltoes
    rhipjoint rfemur
    rfemur rtibia
    rtibia rfoot
    rfoot rtoes
    lowerback upperback
    upperback thorax
    thorax lowerneck lclavicle rclavicle
    lowerneck upperneck
    upperneck head
    lclavicle lhumerus
    lhumerus lradius
    lradius lwrist
    lwrist lhand lthumb
    lhand lfingers
    rclavicle rhumerus
    rhumerus rradius
    rradius rwrist
    rwrist rhand rthumb
    rhand rfingers
  end

#!OML:ASF H:\Not Pregnant\Project 1\Capture day 1\Session 1\non-pregnant.ASF
:FULLY-SPECIFIED
:DEGREES
404
root 2.71745 1.59039 17.4481 -71.0984 -17.3571 9.33646
lowerback 30.2959 -1.20981 18.2221
upperback 12.123 3.51676 -2.32827
thorax -1.06935 2.66182 -13.0896
lowerneck 34.5118 -3.43338 -34.8537
upperneck 6.47837 -18.874 31.894
head 3.52269 -12.6306 17.7053
rclavicle -7.30534e-015 -2.06239e-014
rhumerus -34.6562 -4.20555 -82.1552
rradius 54.7356
rwrist 1.7762
rhand -34.7936 -19.0008
rfingers 7.12502
rthumb -7.94556 -48.8315
lclavicle -7.30534e-015 -2.06239e-014
lhumerus -44.6083 -14.5937 74.8733
lradius 51.0195
lwrist 17.7201
lhand -16.0862 -23.0942
lfingers 7.12502
lthumb 10.117 6.64261
rfemur -79.099 -33.7462 42.8509
rtibia 114.914
rfoot 21.3334 12.9956
rtoes -6.50871
lfemur -42.8054 -7.60941 11.1641
ltibia 52.0977
lfoot 33.1726 -17.6349
ltoes 15.984
405
root 2.74225 1.58592 17.4269 -71.6723 -17.4986 9.08486
lowerback 29.9742 -1.36868 18.5312
upperback 12.0588 3.34844 -2.18139
thorax -1.03841 2.57949 -13.0359
lowerneck 34.4093 -3.35474 -35.0257
upperneck 6.50657 -18.817 31.6941
head 3.51925 -12.5881 17.6277
rclavicle -3.91357e-014 7.85199e-015
rhumerus -33.7832 -4.50691 -82.1873
rradius 54.1132
rwrist 1.60601
rhand -33.9453 -19.038
rfingers 7.12502
rthumb -7.12675 -48.898
lclavicle -3.91357e-014 7.85199e-015
lhumerus -44.0537 -14.428 75.1919
lradius 50.1708
lwrist 17.7292
lhand -15.4556 -22.6622
lfingers 7.12502
lthumb 10.7253 7.04399
rfemur -77.5032 -33.1276 42.041
rtibia 113.707
rfoot 21.3346 12.9994
rtoes -6.46414
lfemur -42.1988 -7.87271 11.3059
ltibia 52.1741
lfoot 33.6574 -17.5113
ltoes 16.3631
406
root 2.76693 1.58102 17.4062 -72.2539 -17.6244 8.83775
lowerback 29.6593 -1.52129 18.8059
upperback 11.9988 3.17697 -2.0278
thorax -1.00965 2.49386 -12.9564
lowerneck 34.3314 -3.29059 -35.179
upperneck 6.49307 -18.7734 31.5121
head 3.50519 -12.5534 17.5561
rclavicle 2.12265e-014 -2.03879e-014
rhumerus -32.9718 -4.75279 -82.2442
rradius 53.5499
rwrist 1.3665
rhand -33.1493 -19.1011
rfingers 7.12502
rthumb -6.35833 -48.9857
lclavicle 2.12265e-014 -2.03879e-014
lhumerus -43.5051 -14.2549 75.5233
lradius 49.3407
lwrist 17.9615
lhand -14.78 -22.1992
lfingers 7.12502
lthumb 11.3769 7.47216
rfemur -75.9027 -32.4934 41.2185
rtibia 112.503
rfoot 21.2362 13.0436
rtoes -6.54478
lfemur -41.6219 -8.134 11.4251
ltibia 52.3176
lfoot 34.2533 -17.3661
ltoes 16.8258
407
root 2.79169 1.57594 17.3859 -72.8255 -17.7393 8.59175
lowerback 29.3296 -1.66672 19.058
upperback 11.943 3.0026 -1.86942
thorax -0.973055 2.40665 -12.8594
lowerneck 34.2681 -3.24122 -35.3114
upperneck 6.44213 -18.7407 31.3524
head 3.482 -12.5246 17.492
rclavicle 1.78037e-014 5.69145e-014
rhumerus -32.2201 -4.95125 -82.3267
rradius 53.0403
rwrist 1.09134
rhand -32.4004 -19.1234
rfingers 7.12502
rthumb -5.63535 -49.0284
lclavicle 1.78037e-014 5.69145e-014
lhumerus -42.9565 -14.0776 75.8627
lradius 48.5313
lwrist 18.4147
lhand -14.0729 -21.6979
lfingers 7.12502
lthumb 12.0588 7.93469
rfemur -74.3218 -31.8335 40.4011
rtibia 111.302
rfoot 21.0574 13.1215
rtoes -6.75771
lfemur -41.0951 -8.3906 11.5312
ltibia 52.5274
lfoot 34.9243 -17.2525
ltoes 17.2917
408
root 2.81642 1.57045 17.3661 -73.384 -17.8535 8.34801
lowerback 28.9912 -1.80467 19.293
upperback 11.888 2.82887 -1.70619
thorax -0.932878 2.31922 -12.7491
lowerneck 34.2194 -3.20374 -35.4215
upperneck 6.35777 -18.7149 31.2133
head 3.44907 -12.4995 17.4352
rclavicle -5.49143e-014 5.53118e-014
rhumerus -31.5361 -5.08839 -82.4392
rradius 52.5988
rwrist 0.803453
rhand -31.6948 -19.1147
rfingers 7.12502
rthumb -4.95401 -49.0368
lclavicle -5.49143e-014 5.53118e-014
lhumerus -42.4129 -13.8933 76.2041
lradius 47.7474
lwrist 19.0631
lhand -13.356 -21.1545
lfingers 7.12502
lthumb 12.75 8.43621
rfemur -72.7694 -31.1352 39.6072
rtibia 110.102
rfoot 20.8204 13.2226
rtoes -7.06011
lfemur -40.6197 -8.63743 11.6367
ltibia 52.7989
lfoot 35.6988 -17.1128
ltoes 17.8437
409
root 2.84103 1.56445 17.3469 -73.9202 -17.965 8.10863
lowerback 28.6399 -1.93162 19.5077
upperback 11.8337 2.65859 -1.54025
thorax -0.886752 2.23323 -12.6269
lowerneck 34.1746 -3.16714 -35.5324
upperneck 6.25101 -18.6898 31.1061
head 3.41237 -12.4763 17.3945
rclavicle 7.23079e-014 -6.54995e-014
rhumerus -30.9123 -5.19796 -82.5662
rradius 52.2179
rwrist 0.513183
rhand -31.0086 -18.994
rfingers 7.12502
rthumb -4.29147 -48.9305
lclavicle 7.23079e-014 -6.54995e-014
lhumerus -41.8699 -13.7096 76.5433
lradius 46.9956
lwrist 19.885
lhand -12.645 -20.5519
lfingers 7.12502
lthumb 13.4354 8.99477
rfemur -71.2679 -30.3927 38.8471
rtibia 108.908
rfoot 20.5661 13.3384
rtoes -7.38239
lfemur -40.2033 -8.87227 11.7418
ltibia 53.1267
lfoot 36.519 -17.0127
ltoes 18.3824
410
root 2.86509 1.55794 17.3286 -74.4535 -18.0587 7.86774
lowerback 28.2859 -2.05062 19.6899
upperback 11.787 2.48615 -1.37336
thorax -0.833885 2.14609 -12.4874
lowerneck 34.1269 -3.13095 -35.642
upperneck 6.13277 -18.6631 31.0278
head 3.3746 -12.4535 17.368
rclavicle 1.09332e-014 -6.65929e-014
rhumerus -30.3495 -5.29124 -82.6994
rradius 51.9026
rwrist 0.234182
rhand -30.3281 -18.8174
rfingers 7.12502
rthumb -3.63434 -48.7662
lclavicle 1.09332e-014 -6.65929e-014
lhumerus -41.3252 -13.5314 76.8794
lradius 46.2749
lwrist 20.8622
lhand -11.9428 -19.8924
lfingers 7.12502
lthumb 14.1121 9.60842
rfemur -69.8056 -29.6378 38.1029
rtibia 107.733
rfoot 20.3251 13.4652
rtoes -7.63217
lfemur -39.8242 -9.11598 11.8299
ltibia 53.4991
lfoot 37.4383 -16.8242
ltoes 19.0822
411
root 2.88829 1.55068 17.3111 -74.9594 -18.1679 7.60967
lowerback 27.9195 -2.16341 19.8675
upperback 11.7381 2.31621 -1.19521
thorax -0.776976 2.05979 -12.3346
lowerneck 34.0668 -3.09461 -35.7597
upperneck 6.01759 -18.6378 30.9794
head 3.34339 -12.4329 17.3563
rclavicle -5.43676e-014 3.03147e-014
rhumerus -29.8503 -5.38031 -82.8289
rradius 51.6524
rwrist -0.00472755
rhand -29.6324 -18.6227
rfingers 7.12502
rthumb -2.96247 -48.5818
lclavicle -5.43676e-014 3.03147e-014
lhumerus -40.7847 -13.3655 77.2169
lradius 45.5927
lwrist 21.9933
lhand -11.2544 -19.1755
lfingers 7.12502
lthumb 14.7754 10.2778
rfemur -68.4106 -28.8575 37.4348
rtibia 106.583
rfoot 20.1123 13.5794
rtoes -7.73689
lfemur -39.504 -9.35155 11.9471
ltibia 53.9066
lfoot 38.3736 -16.6385
ltoes 19.8197
412
root 2.91011 1.543 17.2947 -75.4544 -18.2214 7.35878
lowerback 27.5455 -2.25403 19.9577
upperback 11.6944 2.14753 -1.01782
thorax -0.717062 1.97128 -12.1402
lowerneck 33.9798 -3.06896 -35.8716
upperneck 5.92086 -18.6194 30.9449
head 3.32398 -12.4149 17.3482
rclavicle -1.66979e-014 1.41137e-014
rhumerus -29.4061 -5.4679 -82.9474
rradius 51.4489
rwrist -0.171794
rhand -28.9224 -18.4315
rfingers 7.12502
rthumb -2.27676 -48.3991
lclavicle -1.66979e-014 1.41137e-014
lhumerus -40.2488 -13.2206 77.5605
lradius 44.9579
lwrist 23.2901
lhand -10.5714 -18.3929
lfingers 7.12502
lthumb 15.4334 11.011
rfemur -67.0927 -28.0803 36.7656
rtibia 105.487
rfoot 19.9303 13.6926
rtoes -7.74683
lfemur -39.2164 -9.60198 12.0072
ltibia 54.3316
lfoot 39.3523 -16.3095
ltoes 20.7347
413
root 2.93019 1.53468 17.2791 -75.9491 -18.1158 7.14089
lowerback 27.1712 -2.30433 19.846
upperback 11.6564 1.97604 -0.85971
thorax -0.666833 1.87324 -11.8669
lowerneck 33.8566 -3.05979 -35.9713
upperneck 5.85863 -18.6119 30.9136
head 3.32203 -12.4008 17.3361
rclavicle -2.38542e-015 -2.80286e-014
rhumerus -29.0262 -5.54789 -83.0494
rradius 51.2965
rwrist -0.272444
rhand -28.1607 -18.2523
rfingers 7.12502
rthumb -1.54111 -48.2265
lclavicle -2.38542e-015 -2.80286e-014
lhumerus -39.7192 -13.0891 77.9088
lradius 44.362
lwrist 24.7326
lhand -9.87002 -17.546
lfingers 7.12502
lthumb 16.1088 11.8045
rfemur -65.8788 -27.336 35.9861
rtibia 104.479
rfoot 19.8048 13.8058
rtoes -7.70497
lfemur -38.9477 -9.89203 11.8901
ltibia 54.7597
lfoot 40.2764 -15.9133
ltoes 21.6584
414
root 2.94754 1.52392 17.2644 -76.5295 -17.7728 7.04746
lowerback 26.8946 -2.28484 19.3964
upperback 11.6347 1.82847 -0.74234
thorax -0.656958 1.77257 -11.476
lowerneck 33.6948 -3.06917 -36.0466
upperneck 5.83651 -18.6131 30.8852
head 3.33735 -12.3891 17.3188
rclavicle -2.08724e-014 2.82274e-014
rhumerus -28.7033 -5.61324 -83.1359
rradius 51.1862
rwrist -0.324454
rhand -27.3326 -18.0802
rfingers 7.12502
rthumb -0.74134 -48.0587
lclavicle -2.08724e-014 2.82274e-014
lhumerus -39.1946 -12.9674 78.2539
lradius 43.796
lwrist 26.2378
lhand -9.13481 -16.6309
lfingers 7.12502
lthumb 16.8167 12.6609
rfemur -64.7113 -26.585 34.9711
rtibia 103.583
rfoot 19.7283 13.9446
rtoes -7.76086
lfemur -38.5871 -10.2105 11.4744
ltibia 55.1777
lfoot 41.0924 -15.4631
ltoes 22.4971
